<?xml version="1.0" encoding="UTF-8"?>
<svg id="Lag_1" data-name="Lag 1" xmlns="http://www.w3.org/2000/svg" viewBox="0 0 746.08 1240.91">
  <defs>
    <style>
      .cls-1 {
        fill: none;
      }

      .cls-1, .cls-2 {
        stroke-width: 0px;
      }

      .cls-2 {
        fill: #1a2425;
        fill-rule: evenodd;
      }
    </style>
  </defs>
  <path class="cls-2" d="M3.78,468.45c-1.28.31-2.54.67-3.78,1.07v-190.72c7.3-3.82,15.61-5.98,24.42-5.98h88.01c29.16,0,52.8,23.64,52.8,52.81v88.01c0,29.16-23.64,52.8-52.8,52.8H24.42c-6.86,0-14,.4-20.64,2.01Z"/>
  <path class="cls-2" d="M746.08,519.24v475.24c0,1.86-.1,3.7-.28,5.52-2.76,26.58-25.22,47.29-52.52,47.29h-88.01c-6.89,0-14.06.4-20.73,2.01-6.66,1.62-12.83,4.44-17.7,9.31l-3.05,3.05c-9.74,9.74-11.32,24.66-11.32,38.43v88.01c0,29.16-23.65,52.81-52.81,52.81h-88.01c-29.16,0-52.8-23.65-52.8-52.81v-88.01c0-29.16,23.64-52.8,52.8-52.8h88.01c7.21,0,14.75-.37,21.76-2,7.01-1.64,13.49-4.55,18.59-9.65l.8-.81c8.91-8.91,11.15-22.04,11.58-34.83.06-1.85.08-3.7.08-5.52v-475.24c0-.35,0-.71.01-1.06.28-14.46-1.01-30.3-11.23-40.52-9.44-9.44-23.64-11.27-37.14-11.27-1.13,0-2.27.02-3.39.04-.35.01-.7.01-1.06.01h-88.01c-7.15,0-14.63.37-21.58,2-6.95,1.64-13.38,4.54-18.44,9.6l-1.18,1.18c-10.12,10.12-11.6,25.71-11.6,40.02v475.24c0,1.86-.1,3.7-.28,5.52-2.76,26.58-25.22,47.29-52.52,47.29h-88.01c-.19,0-.38,0-.56-.01-14.56-.15-30.48,1.2-40.77,11.49s-11.49,24.78-11.49,38.78c0,.66,0,1.32.01,1.98v88.57c0,29.16-23.64,52.81-52.8,52.81H24.42c-8.81,0-17.12-2.16-24.42-5.98v-189.78c6.63,1.71,13.8,2.16,20.76,2.16.95,0,1.89-.01,2.83-.02h88.84c6.64,0,13.55-.42,19.96-2.01,6.42-1.6,12.35-4.36,17.05-9.06l4.72-4.72c8.11-8.11,10.47-19.89,10.96-31.5.08-1.85.11-3.7.11-5.52v-475.24c0-29.16,23.64-52.8,52.81-52.8h88.01c6.94,0,14.17-.39,20.9-2.01,6.73-1.62,12.95-4.47,17.86-9.38l2.65-2.65c9.82-9.82,11.39-24.88,11.39-38.76v-88.01c0-29.17,23.64-52.81,52.8-52.81h88.01c29.16,0,52.81,23.64,52.81,52.81v88.01c0,6.53.43,13.31,2.01,19.62,1.58,6.3,4.32,12.13,8.94,16.75l5.47,5.48c9.24,9.24,23.31,10.95,36.38,10.95h88.01c29.16,0,52.8,23.64,52.8,52.8Z"/>
  <path class="cls-2" d="M358.57,1000c-2.76,26.58-25.22,47.29-52.52,47.29h-88.01c-.19,0-.38,0-.56-.01-14.56-.15-30.48,1.2-40.77,11.49s-11.49,24.78-11.49,38.78c0,.66,0,1.32.01,1.98v88.57c0,29.16-23.64,52.81-52.8,52.81H24.42c-8.81,0-17.12-2.16-24.42-5.98v-189.78c6.63,1.71,13.8,2.16,20.76,2.16.95,0,1.89-.01,2.83-.02h88.84c6.64,0,13.55-.42,19.96-2.01,6.42-1.6,12.35-4.36,17.05-9.06l4.72-4.72c8.11-8.11,10.47-19.89,10.96-31.5h193.45Z"/>
  <path class="cls-2" d="M745.8,1000c-2.76,26.58-25.22,47.29-52.52,47.29h-88.01c-6.89,0-14.06.4-20.73,2.01-6.66,1.62-12.83,4.44-17.7,9.31l-3.05,3.05c-9.74,9.74-11.32,24.66-11.32,38.43v88.01c0,29.16-23.65,52.81-52.81,52.81h-88.01c-29.16,0-52.8-23.65-52.8-52.81v-88.01c0-29.16,23.64-52.8,52.8-52.8h88.01c7.21,0,14.75-.37,21.76-2,7.01-1.64,13.49-4.55,18.59-9.65l.8-.81c8.91-8.91,11.15-22.04,11.58-34.83h193.41Z"/>
  <rect class="cls-1" width="626" height="267"/>
</svg>